<?xml version="1.0" standalone="no"?>
<!DOCTYPE svg PUBLIC "-//W3C//DTD SVG 20010904//EN"
 "http://www.w3.org/TR/2001/REC-SVG-20010904/DTD/svg10.dtd">
<svg version="1.0" xmlns="http://www.w3.org/2000/svg"
 width="306.000000pt" height="293.000000pt" viewBox="0 0 306.000000 293.000000"
 preserveAspectRatio="xMidYMid meet">
<metadata>
Created by potrace 1.15, written by Peter Selinger 2001-2017
</metadata>
<g transform="translate(0.000000,293.000000) scale(0.100000,-0.100000)"
fill="#000000" stroke="none">
<path d="M0 1465 l0 -1465 1530 0 1530 0 0 1426 c0 1296 -1 1426 -16 1420 -9
-3 -21 -6 -27 -6 -7 0 -6 -5 3 -10 13 -9 12 -12 -5 -26 -19 -14 -19 -16 -2
-45 23 -41 21 -109 -4 -109 -17 0 -59 -48 -54 -61 6 -17 -31 -43 -40 -29 -11
18 -23 11 -18 -10 6 -23 -15 -28 -35 -8 -7 7 -12 9 -12 4 0 -4 7 -15 16 -23
14 -15 13 -18 -17 -42 -19 -14 -36 -25 -39 -23 -3 2 -7 -7 -10 -20 -4 -14 -13
-23 -25 -23 -11 0 -28 -10 -38 -22 -19 -24 -63 -31 -69 -12 -2 6 -18 -2 -35
-18 -24 -23 -31 -36 -27 -54 4 -17 3 -20 -4 -10 -5 7 -14 11 -19 8 -17 -11
-48 161 -48 268 0 125 7 155 39 155 24 0 56 28 56 48 0 7 9 21 20 32 11 11 20
29 20 39 0 11 9 22 19 26 11 3 23 15 26 25 3 10 16 21 28 23 12 2 -38 5 -110
6 -82 0 -133 -3 -134 -9 -1 -5 -2 -14 -3 -19 0 -5 -12 -18 -26 -29 -23 -18
-24 -23 -13 -52 9 -25 9 -39 -3 -72 -33 -95 -35 -248 -4 -373 10 -42 13 -102
5 -93 -3 2 -6 17 -7 31 -1 15 -3 27 -5 27 -9 0 -73 -44 -73 -51 0 -4 -8 -5
-17 -2 -16 6 -16 5 -5 -10 8 -9 22 -19 33 -22 10 -4 19 -13 19 -20 0 -8 5 -17
12 -21 7 -4 8 -3 4 4 -11 18 0 14 15 -5 10 -11 10 -14 2 -9 -16 9 -16 1 -1
-23 9 -15 7 -27 -14 -62 -15 -24 -37 -55 -51 -67 l-25 -24 -19 44 c-23 49 -47
73 -64 62 -8 -5 -9 -3 -4 6 6 10 4 12 -9 7 -10 -4 -15 -3 -11 3 9 14 -40 23
-88 16 -24 -4 -70 -19 -103 -35 -77 -37 -206 -129 -202 -143 10 -29 118 -90
198 -113 72 -20 79 -24 47 -24 -23 -1 -36 -5 -32 -11 4 -6 -13 -10 -43 -10
-40 0 -53 4 -66 23 -12 17 -14 18 -9 3 4 -13 3 -17 -5 -12 -6 3 -16 -2 -21
-13 -9 -16 -3 -30 35 -80 25 -34 47 -61 48 -61 23 0 239 -33 268 -41 22 -6 44
-7 49 -2 12 13 39 169 39 228 0 50 2 54 41 81 22 15 49 39 60 52 11 14 20 23
22 21 17 -30 27 -50 27 -56 0 -5 -4 -3 -8 3 -4 7 -8 -36 -9 -95 -2 -58 -11
-145 -21 -192 l-19 -86 71 -23 c88 -28 215 -90 277 -136 146 -107 198 -238
140 -357 -52 -107 -229 -229 -419 -288 -53 -17 -71 -27 -67 -37 17 -44 35
-199 35 -297 0 -159 -23 -231 -95 -302 -64 -63 -127 -81 -222 -64 -89 16 -244
98 -350 185 -50 42 -95 76 -98 76 -4 0 -38 -26 -75 -59 -315 -271 -603 -268
-687 8 -23 72 -23 305 -2 403 l15 67 -75 27 c-336 120 -487 308 -395 492 50
102 197 207 377 271 95 33 98 35 92 60 -37 141 -45 359 -19 456 9 33 17 68 18
77 0 9 2 15 4 13 6 -6 57 58 54 68 -1 5 1 6 6 4 11 -8 58 30 49 39 -4 4 -14
-1 -23 -12 -15 -19 -15 -18 -11 3 3 15 1 20 -9 16 -17 -6 -19 13 -1 21 6 4 2
4 -11 2 -15 -3 -25 1 -29 11 -3 9 -13 13 -25 10 -14 -4 -18 -1 -14 9 3 8 0 14
-6 14 -10 0 -77 -38 -88 -49 -10 -12 -42 -12 -35 -1 4 7 1 10 -6 9 -22 -5 -69
10 -69 22 0 6 -13 24 -30 41 -16 16 -30 27 -30 23 0 -3 -9 -1 -20 5 -11 6 -18
15 -15 21 4 5 -5 13 -19 19 -14 5 -26 16 -26 25 0 8 -4 15 -10 15 -5 0 -10 -5
-10 -11 0 -5 -5 -7 -10 -4 -6 4 -8 11 -5 16 3 5 0 6 -8 3 -8 -3 -17 -2 -20 3
-3 5 6 10 20 11 36 3 43 12 10 12 -15 0 -27 5 -27 10 0 6 -11 8 -25 4 -18 -4
-25 -2 -25 9 0 14 -13 44 -34 76 -7 10 -10 10 -16 1 -6 -9 -12 -4 -23 16 -13
26 -13 30 2 41 14 10 13 11 -6 6 -19 -4 -23 -1 -23 17 0 12 7 28 15 36 20 20
20 74 0 74 -22 0 -48 45 -40 72 4 15 3 18 -3 10 -7 -10 -13 -7 -28 13 -19 25
-19 25 -181 25 l-163 0 0 -1465z"/>
<path d="M1890 2634 c-49 -21 -77 -50 -116 -119 -65 -117 -81 -270 -39 -371
18 -43 18 -47 5 -39 -6 4 -9 1 -8 -6 2 -6 -7 -12 -19 -14 -13 -1 -23 2 -23 7
0 4 8 8 17 8 9 0 14 3 10 6 -3 4 -14 3 -24 -1 -10 -5 -22 -7 -27 -6 -5 1 -4
-4 2 -12 18 -22 1 -29 -22 -10 -15 13 -14 10 3 -10 26 -29 47 -36 38 -13 -6
14 21 32 31 21 3 -3 0 -5 -6 -5 -7 0 -12 -5 -12 -11 0 -5 19 5 41 23 45 36
134 118 108 99 -14 -10 -18 -5 -28 33 -6 25 -11 66 -11 92 l0 48 28 -26 c31
-30 72 -52 72 -40 0 4 -9 25 -20 47 -47 92 -7 215 85 262 16 9 41 19 55 23
l25 7 -28 12 c-39 15 -95 13 -137 -5z"/>
<path d="M1157 2154 c-9 -3 -15 -9 -12 -14 3 -4 -3 -7 -12 -6 -38 3 -83 -109
-83 -204 0 -54 21 -191 29 -186 3 2 7 -17 8 -42 1 -25 7 -50 12 -55 6 -6 35
-3 78 6 37 9 98 19 136 22 l67 7 61 80 c56 73 60 82 45 96 -13 13 -18 14 -28
3 -11 -10 -10 -11 3 -6 26 10 30 -8 9 -40 l-19 -28 -8 33 c-6 24 -15 34 -32
37 -20 3 -22 1 -11 -12 11 -13 15 -13 21 -3 6 9 9 5 9 -13 0 -14 -7 -34 -16
-45 -8 -10 -13 -14 -10 -8 3 7 -4 14 -15 17 -16 4 -20 11 -16 26 4 15 0 21
-11 21 -25 1 23 24 81 40 43 12 49 11 61 -5 10 -14 15 -15 21 -5 5 8 4 11 -2
7 -6 -4 -13 0 -17 8 -3 8 -1 17 4 20 6 4 10 1 10 -5 0 -7 7 -5 16 4 19 19 28
21 18 4 -4 -7 4 -3 17 10 l24 23 -38 35 c-21 19 -43 32 -49 28 -6 -4 -8 -3 -5
3 11 18 -17 32 -53 28 -25 -3 -31 -2 -20 5 12 7 8 12 -18 21 -18 6 -31 14 -28
16 3 3 24 -4 48 -16 40 -20 41 -20 18 -2 -14 11 -58 37 -97 57 -71 36 -149 51
-196 38z"/>
<path d="M1478 1553 c-19 -5 -31 -30 -21 -45 3 -6 1 -8 -5 -5 -11 8 -62 -68
-136 -206 l-47 -88 47 -87 c25 -48 77 -134 114 -192 l67 -105 99 -5 c55 -3
151 -4 215 -2 l116 5 60 96 c33 53 80 135 105 182 l46 87 -43 79 c-66 124
-146 244 -158 236 -6 -3 -7 -1 -3 5 4 6 2 21 -4 32 -10 19 -20 20 -223 19
-117 -1 -219 -3 -229 -6z m310 -139 c152 -63 189 -259 71 -371 -110 -104 -281
-74 -351 61 -30 56 -30 146 0 202 11 23 18 45 14 49 -4 5 -2 5 4 2 6 -4 20 3
30 15 48 53 158 73 232 42z"/>
<path d="M2100 1533 c0 -5 4 -13 9 -18 5 -6 30 -45 54 -89 42 -74 46 -77 57
-56 10 18 50 127 50 136 0 2 -28 8 -142 30 -16 3 -28 2 -28 -3z"/>
<path d="M923 1450 c-169 -56 -277 -131 -309 -215 -16 -42 -16 -48 0 -89 32
-82 130 -154 290 -211 l95 -34 26 78 c14 43 41 114 59 157 l33 79 -32 71 c-18
38 -40 92 -49 120 -26 77 -22 75 -113 44z"/>
<path d="M2400 1459 c0 -8 -24 -73 -54 -146 l-54 -132 32 -73 c17 -40 42 -102
56 -138 13 -36 24 -66 26 -68 6 -9 151 43 221 78 100 50 146 89 173 145 53
111 -31 216 -241 303 -92 38 -159 51 -159 31z"/>
<path d="M1162 964 c-18 -48 -31 -88 -29 -90 7 -8 178 -36 183 -31 3 3 -10 29
-29 59 -19 29 -46 74 -61 101 -15 26 -28 47 -29 47 -2 0 -17 -39 -35 -86z"/>
<path d="M2186 977 c-16 -29 -42 -71 -58 -94 -25 -37 -27 -43 -11 -43 24 1
152 26 157 31 1 2 -11 39 -28 81 l-32 77 -28 -52z"/>
<path d="M1078 684 c-7 -33 -13 -116 -13 -189 0 -120 2 -133 25 -174 38 -67
70 -86 144 -86 52 0 76 7 139 38 67 33 224 148 242 178 4 6 -11 30 -32 52 -22
23 -66 74 -97 114 -53 67 -61 72 -104 78 -41 6 -149 23 -259 42 -31 5 -31 5
-45 -53z"/>
<path d="M2255 729 c-16 -5 -66 -13 -110 -19 -148 -19 -139 -15 -196 -88 -29
-37 -73 -88 -98 -114 l-45 -48 25 -26 c47 -51 150 -127 225 -165 63 -33 85
-39 135 -39 75 0 108 17 139 72 23 39 25 53 25 163 0 81 -6 145 -18 198 -20
83 -22 84 -82 66z"/>
</g>
</svg>
